<?xml version="1.0" encoding="UTF-8" standalone="no"?>
<!-- Generator: Adobe Illustrator 19.0.0, SVG Export Plug-In . SVG Version: 6.00 Build 0)  -->

<svg
   version="1.1"
   id="Capa_1"
   x="0px"
   y="0px"
   viewBox="0 0 256.00001 256.00001"
   xml:space="preserve"
   sodipodi:docname="logo.svg"
   width="256"
   height="256"
   inkscape:version="1.4.2 (ebf0e940d0, 2025-05-08)"
   xmlns:inkscape="http://www.inkscape.org/namespaces/inkscape"
   xmlns:sodipodi="http://sodipodi.sourceforge.net/DTD/sodipodi-0.dtd"
   xmlns="http://www.w3.org/2000/svg"
   xmlns:svg="http://www.w3.org/2000/svg"><defs
   id="defs21" /><sodipodi:namedview
   id="namedview21"
   pagecolor="#ffffff"
   bordercolor="#000000"
   borderopacity="0.25"
   inkscape:showpageshadow="2"
   inkscape:pageopacity="0.0"
   inkscape:pagecheckerboard="0"
   inkscape:deskcolor="#d1d1d1"
   inkscape:zoom="2.2499957"
   inkscape:cx="256.00049"
   inkscape:cy="256.00049"
   inkscape:window-width="3440"
   inkscape:window-height="1371"
   inkscape:window-x="0"
   inkscape:window-y="0"
   inkscape:window-maximized="1"
   inkscape:current-layer="Capa_1" />
<path
   style="fill:#ef5350;stroke-width:0.499999"
   d="m 127.99964,228.24806 c 229.98398,-120.54373 86.44231,-258.533914 0,-174.053604 -86.442302,-84.48031 -229.98398,53.510374 0,174.053604 z"
   id="path1" />
<path
   style="fill:#e6e0b1;stroke-width:0.499999"
   d="m 84.233242,89.28088 6.468485,-5.96099 C 93.99222,80.2874 94.201219,75.161908 91.169226,71.871916 L 67.078281,45.730975 C 64.045787,42.440482 58.920299,42.231482 55.630306,45.263476 l -6.468485,5.960986 c -3.290493,3.032493 -3.499492,8.157982 -0.467499,11.447974 L 72.785268,88.81338 c 3.032493,3.29049 8.157981,3.49999 11.447974,0.4675 z"
   id="path2" />
<path
   style="fill:#fff9c5;stroke-width:0.499999"
   d="M 91.940224,52.970958 85.979238,46.502473 C 82.946745,43.21198 77.821256,43.002981 74.531264,46.034974 L 48.390323,70.12592 c -3.290493,3.032493 -3.499492,8.15798 -0.467499,11.44797 l 5.960986,6.46849 c 3.032493,3.29049 8.157982,3.49949 11.447974,0.4675 L 91.473226,64.418932 c 3.289992,-3.031993 3.499492,-8.157981 0.466998,-11.447974 z"
   id="path3" />
<path
   style="fill:#d44a47;stroke-width:0.499999"
   d="M 177.12053,28.882513 C 240.08239,38.090992 276.87531,135.34277 129.56114,227.42406 316.72222,128.53129 253.47436,18.280537 177.12053,28.882513 Z"
   id="path4" />
<path
   d="m 56.241805,185.76416 c 18.938957,15.97196 42.496404,31.38493 70.018845,45.8099 1.08149,0.56699 2.40049,0.56699 3.48199,0 44.6464,-23.40145 78.20382,-48.92439 99.73977,-75.86183 18.51896,-23.16345 27.64894,-47.0879 26.40544,-69.18835 C 255.15136,73.438412 250.71187,61.17594 243.04988,51.061963 235.7339,41.404984 225.67242,33.895501 213.95445,29.345512 200.29998,24.044024 185.18001,22.998026 170.22955,26.320518 155.14108,29.673511 140.60961,37.501993 128.00214,49.037467 109.32319,31.934506 86.838736,23.260525 64.328287,24.549522 44.412332,25.69152 26.173873,34.734499 14.2879,49.361466 c -1.305997,1.607497 -1.061998,3.968991 0.544998,5.275489 1.607497,1.305997 3.968991,1.061997 5.274988,-0.545499 10.559977,-12.994471 26.83344,-21.032453 44.6489,-22.053451 21.445951,-1.228997 42.973404,7.593983 60.623364,24.842944 1.4575,1.423997 3.78449,1.423997 5.24199,0 12.19497,-11.917973 26.45294,-19.953955 41.2334,-23.238447 13.49697,-2.999493 27.11544,-2.067495 39.38342,2.695494 10.42297,4.046491 19.35545,10.704476 25.83194,19.253456 6.75848,8.92098 10.67547,19.763456 11.32797,31.354428 1.1385,20.22696 -7.42848,42.38591 -24.77544,64.08336 -20.60596,25.77444 -52.77038,50.32288 -95.62279,72.98583 C 101.7097,210.1086 79.200253,195.31614 61.076294,180.03117 44.355832,165.9297 31.289861,151.35924 22.240882,136.72377 6.8209164,111.78483 3.3734242,86.80638 12.532904,66.388428 c 0.847998,-1.889496 0.003,-4.108491 -1.886496,-4.956489 -1.8889959,-0.847498 -4.1084909,-0.003 -4.956489,1.886496 -10.209977,22.758945 -6.59698513,50.228885 10.171977,77.349325 9.466479,15.31047 23.051948,30.48293 40.379909,45.0964 z"
   id="path5"
   style="stroke-width:0.499999" />
<path
   d="m 128.00164,150.21274 c 8.06998,0 15.15147,-6.04999 17.22046,-14.71247 0.481,-2.01449 -0.76149,-4.03749 -2.77599,-4.51849 -2.01499,-0.4815 -4.03749,0.7615 -4.51899,2.776 -1.2595,5.27248 -5.34099,8.95498 -9.92598,8.95498 -4.58499,0 -8.66698,-3.683 -9.92647,-8.95648 -0.481,-2.0145 -2.5035,-3.2575 -4.51849,-2.7765 -2.0145,0.481 -3.2575,2.504 -2.7765,4.51849 2.07,8.66398 9.15148,14.71447 17.22196,14.71447 z"
   id="path6"
   style="stroke-width:0.499999" />
<circle
   cx="89.948723"
   cy="116.55382"
   r="9.1304789"
   id="circle6"
   style="stroke-width:0.499999" />
<circle
   cx="166.05806"
   cy="116.55382"
   r="9.1304789"
   id="circle7"
   style="stroke-width:0.499999" />
<path
   d="m 45.16683,84.12039 c 0,0 5.958487,6.46548 5.960987,6.46848 4.37599,4.74849 12.003472,5.05549 16.746962,0.6835 l 1.120997,-1.033 1.033498,1.121 c 4.37599,4.74799 12.001973,5.05649 16.746962,0.6835 l 6.468486,-5.96049 C 98.050211,81.65489 98.35721,74.141911 93.92822,69.335921 l -1.032998,-1.121497 c 0,0 1.120498,-1.032498 1.120998,-1.032998 4.749989,-4.37749 5.058988,-11.999973 0.683498,-16.746962 0,0 -5.958986,-6.465985 -5.960986,-6.468485 -4.37399,-4.74599 -12.005973,-5.052989 -16.746963,-0.683499 l -1.120997,1.032998 c 0,0 -1.032498,-1.120498 -1.032998,-1.120998 -4.37599,-4.748489 -12.002473,-5.055988 -16.746962,-0.683498 l -6.468485,5.960986 c -4.805489,4.42849 -5.112489,11.941473 -0.683999,16.746963 l 1.033498,1.121497 -1.120998,1.032998 C 41.044839,71.801416 40.73834,79.3144 45.16683,84.12039 Z m 6.537985,-30.133434 6.468486,-5.960987 c 0.805498,-0.742498 1.852495,-1.151497 2.946993,-1.151497 1.231497,0 2.368995,0.497999 3.201993,1.402497 l 1.032997,1.120997 -12.868471,11.859474 -1.032997,-1.120998 c -1.625997,-1.764496 -1.513497,-4.52349 0.250999,-6.149486 z M 88.412732,74.41791 c 1.607997,1.7445 1.490497,4.54449 -0.250999,6.14949 0,0 -6.458985,5.95198 -6.468485,5.96048 -1.746996,1.61 -4.54399,1.492 -6.149487,-0.251 l -1.032997,-1.12099 3.250992,-2.996 9.617479,-8.862978 c 0,0 1.031997,1.119498 1.033497,1.120998 z M 80.021251,47.67397 c 1.183498,0.0015 2.365495,0.464999 3.202493,1.374497 0,0 5.949987,6.456986 5.960987,6.468486 1.608996,1.745996 1.490996,4.543489 -0.251,6.148986 0,0 -3.875491,3.571992 -3.878991,3.574492 0,0 -18.383959,16.941959 -18.384459,16.942959 0,0 -3.874491,3.57049 -3.877991,3.57349 -1.748496,1.6115 -4.54099,1.4945 -6.149486,-0.251 L 50.681818,79.0374 c -1.625997,-1.7645 -1.513497,-4.52299 0.250999,-6.149487 0,0 26.110941,-24.063445 26.140941,-24.090945 0.818998,-0.753499 1.883996,-1.124498 2.947493,-1.122998 z"
   id="path7"
   style="stroke-width:0.499999" />
<g
   id="g7"
   transform="matrix(0.49999887,0,0,0.49999887,-6.817705e-5,0.209577)">
</g>
<g
   id="g8"
   transform="matrix(0.49999887,0,0,0.49999887,-6.817705e-5,0.209577)">
</g>
<g
   id="g9"
   transform="matrix(0.49999887,0,0,0.49999887,-6.817705e-5,0.209577)">
</g>
<g
   id="g10"
   transform="matrix(0.49999887,0,0,0.49999887,-6.817705e-5,0.209577)">
</g>
<g
   id="g11"
   transform="matrix(0.49999887,0,0,0.49999887,-6.817705e-5,0.209577)">
</g>
<g
   id="g12"
   transform="matrix(0.49999887,0,0,0.49999887,-6.817705e-5,0.209577)">
</g>
<g
   id="g13"
   transform="matrix(0.49999887,0,0,0.49999887,-6.817705e-5,0.209577)">
</g>
<g
   id="g14"
   transform="matrix(0.49999887,0,0,0.49999887,-6.817705e-5,0.209577)">
</g>
<g
   id="g15"
   transform="matrix(0.49999887,0,0,0.49999887,-6.817705e-5,0.209577)">
</g>
<g
   id="g16"
   transform="matrix(0.49999887,0,0,0.49999887,-6.817705e-5,0.209577)">
</g>
<g
   id="g17"
   transform="matrix(0.49999887,0,0,0.49999887,-6.817705e-5,0.209577)">
</g>
<g
   id="g18"
   transform="matrix(0.49999887,0,0,0.49999887,-6.817705e-5,0.209577)">
</g>
<g
   id="g19"
   transform="matrix(0.49999887,0,0,0.49999887,-6.817705e-5,0.209577)">
</g>
<g
   id="g20"
   transform="matrix(0.49999887,0,0,0.49999887,-6.817705e-5,0.209577)">
</g>
<g
   id="g21"
   transform="matrix(0.49999887,0,0,0.49999887,-6.817705e-5,0.209577)">
</g>
</svg>
